<?xml version="1.0" encoding="UTF-8"?>
<svg width="56px" height="56px" viewBox="0 0 56 56" version="1.1" xmlns="http://www.w3.org/2000/svg" xmlns:xlink="http://www.w3.org/1999/xlink">
    <title>icon/indicator/dust</title>
    <g id="element" stroke="none" stroke-width="1" fill="none" fill-rule="evenodd">
        <g id="Artboard" transform="translate(-39.000000, -200.000000)">
            <g id="Group" transform="translate(39.000000, 200.000000)">
                <rect id="Rectangle" fill="#FFFFFF" x="0" y="0" width="56" height="56"></rect>
                <g transform="translate(13.000000, 15.000000)" fill="#37474F" id="Combined-Shape">
                    <path d="M24.3756541,23.4381713 L24.3756541,25.3131369 L22.5006885,25.3131369 L22.5006885,23.4381713 L24.3756541,23.4381713 Z M10.3128615,22.5006885 L10.3128615,24.3756541 L8.4378959,24.3756541 L8.4378959,22.5006885 L10.3128615,22.5006885 Z M30,22.5006885 L30,24.3756541 L28.1250344,24.3756541 L28.1250344,22.5006885 L30,22.5006885 Z M15.9377582,21.5632057 L15.9377582,23.4381713 L14.0627926,23.4381713 L14.0627926,21.5632057 L15.9377582,21.5632057 Z M1.87496557,20.6251721 L1.87496557,22.5006885 L0,22.5006885 L0,20.6251721 L1.87496557,20.6251721 Z M21.5632057,20.6251721 L21.5632057,22.5006885 L19.6882402,22.5006885 L19.6882402,20.6251721 L21.5632057,20.6251721 Z M7.4998623,19.6876893 L7.4998623,21.5632057 L5.62489672,21.5632057 L5.62489672,19.6876893 L7.4998623,19.6876893 Z M27.1886533,19.6876893 L27.1886533,21.5632057 L25.3136877,21.5632057 L25.3136877,19.6876893 L27.1886533,19.6876893 Z M13.1253098,18.7507574 L13.1253098,20.6251721 L11.2503443,20.6251721 L11.2503443,18.7507574 L13.1253098,18.7507574 Z M18.7502066,17.8132746 L18.7502066,19.6876893 L16.875241,19.6876893 L16.875241,17.8132746 L18.7502066,17.8132746 Z M10.3128615,15.938309 L10.3128615,17.8132746 L8.4378959,17.8132746 L8.4378959,15.938309 L10.3128615,15.938309 Z M15.9377582,15.0002754 L15.9377582,16.875241 L14.0627926,16.875241 L14.0627926,15.0002754 L15.9377582,15.0002754 Z M21.5632057,14.0627926 L21.5632057,15.9377582 L19.6882402,15.9377582 L19.6882402,14.0627926 L21.5632057,14.0627926 Z M7.4998623,13.1253098 L7.4998623,15.0002754 L5.62489672,15.0002754 L5.62489672,13.1253098 L7.4998623,13.1253098 Z M27.1886533,13.1253098 L27.1886533,15.0002754 L25.3136877,15.0002754 L25.3136877,13.1253098 L27.1886533,13.1253098 Z M13.1253098,12.1883779 L13.1253098,14.0633434 L11.2503443,14.0633434 L11.2503443,12.1883779 L13.1253098,12.1883779 Z M18.7502066,11.2503443 L18.7502066,13.1253098 L16.875241,13.1253098 L16.875241,11.2503443 L18.7502066,11.2503443 Z M24.3756541,10.3128615 L24.3756541,12.187827 L22.5006885,12.187827 L22.5006885,10.3128615 L24.3756541,10.3128615 Z M30,9.37537868 L30,11.2503443 L28.1250344,11.2503443 L28.1250344,9.37537868 L30,9.37537868 Z M15.9377582,8.4378959 L15.9377582,10.3128615 L14.0627926,10.3128615 L14.0627926,8.4378959 L15.9377582,8.4378959 Z M21.5632057,7.50041311 L21.5632057,9.37537868 L19.6882402,9.37537868 L19.6882402,7.50041311 L21.5632057,7.50041311 Z M27.1886533,6.56293032 L27.1886533,8.4378959 L25.3136877,8.4378959 L25.3136877,6.56293032 L27.1886533,6.56293032 Z M13.1253098,5.62489672 L13.1253098,7.4998623 L11.2503443,7.4998623 L11.2503443,5.62489672 L13.1253098,5.62489672 Z M18.7502066,4.68796475 L18.7502066,6.56293032 L16.875241,6.56293032 L16.875241,4.68796475 L18.7502066,4.68796475 Z M24.3756541,3.75048196 L24.3756541,5.62544754 L22.5006885,5.62544754 L22.5006885,3.75048196 L24.3756541,3.75048196 Z M27.1886533,-4.44994266e-14 L27.1886533,1.87496557 L25.3136877,1.87496557 L25.3136877,-4.44994266e-14 L27.1886533,-4.44994266e-14 Z"></path>
                    <path d="M24.3756541,23.4381713 L24.3756541,25.3131369 L22.5006885,25.3131369 L22.5006885,23.4381713 L24.3756541,23.4381713 Z M10.3128615,22.5006885 L10.3128615,24.3756541 L8.4378959,24.3756541 L8.4378959,22.5006885 L10.3128615,22.5006885 Z M30,22.5006885 L30,24.3756541 L28.1250344,24.3756541 L28.1250344,22.5006885 L30,22.5006885 Z M15.9377582,21.5632057 L15.9377582,23.4381713 L14.0627926,23.4381713 L14.0627926,21.5632057 L15.9377582,21.5632057 Z M1.87496557,20.6251721 L1.87496557,22.5006885 L0,22.5006885 L0,20.6251721 L1.87496557,20.6251721 Z M21.5632057,20.6251721 L21.5632057,22.5006885 L19.6882402,22.5006885 L19.6882402,20.6251721 L21.5632057,20.6251721 Z M7.4998623,19.6876893 L7.4998623,21.5632057 L5.62489672,21.5632057 L5.62489672,19.6876893 L7.4998623,19.6876893 Z M27.1886533,19.6876893 L27.1886533,21.5632057 L25.3136877,21.5632057 L25.3136877,19.6876893 L27.1886533,19.6876893 Z M13.1253098,18.7507574 L13.1253098,20.6251721 L11.2503443,20.6251721 L11.2503443,18.7507574 L13.1253098,18.7507574 Z M18.7502066,17.8132746 L18.7502066,19.6876893 L16.875241,19.6876893 L16.875241,17.8132746 L18.7502066,17.8132746 Z M10.3128615,15.938309 L10.3128615,17.8132746 L8.4378959,17.8132746 L8.4378959,15.938309 L10.3128615,15.938309 Z M15.9377582,15.0002754 L15.9377582,16.875241 L14.0627926,16.875241 L14.0627926,15.0002754 L15.9377582,15.0002754 Z M21.5632057,14.0627926 L21.5632057,15.9377582 L19.6882402,15.9377582 L19.6882402,14.0627926 L21.5632057,14.0627926 Z M7.4998623,13.1253098 L7.4998623,15.0002754 L5.62489672,15.0002754 L5.62489672,13.1253098 L7.4998623,13.1253098 Z M27.1886533,13.1253098 L27.1886533,15.0002754 L25.3136877,15.0002754 L25.3136877,13.1253098 L27.1886533,13.1253098 Z M13.1253098,12.1883779 L13.1253098,14.0633434 L11.2503443,14.0633434 L11.2503443,12.1883779 L13.1253098,12.1883779 Z M18.7502066,11.2503443 L18.7502066,13.1253098 L16.875241,13.1253098 L16.875241,11.2503443 L18.7502066,11.2503443 Z M24.3756541,10.3128615 L24.3756541,12.187827 L22.5006885,12.187827 L22.5006885,10.3128615 L24.3756541,10.3128615 Z M30,9.37537868 L30,11.2503443 L28.1250344,11.2503443 L28.1250344,9.37537868 L30,9.37537868 Z M15.9377582,8.4378959 L15.9377582,10.3128615 L14.0627926,10.3128615 L14.0627926,8.4378959 L15.9377582,8.4378959 Z M21.5632057,7.50041311 L21.5632057,9.37537868 L19.6882402,9.37537868 L19.6882402,7.50041311 L21.5632057,7.50041311 Z M27.1886533,6.56293032 L27.1886533,8.4378959 L25.3136877,8.4378959 L25.3136877,6.56293032 L27.1886533,6.56293032 Z M13.1253098,5.62489672 L13.1253098,7.4998623 L11.2503443,7.4998623 L11.2503443,5.62489672 L13.1253098,5.62489672 Z M18.7502066,4.68796475 L18.7502066,6.56293032 L16.875241,6.56293032 L16.875241,4.68796475 L18.7502066,4.68796475 Z M24.3756541,3.75048196 L24.3756541,5.62544754 L22.5006885,5.62544754 L22.5006885,3.75048196 L24.3756541,3.75048196 Z M27.1886533,4.44994266e-14 L27.1886533,1.87496557 L25.3136877,1.87496557 L25.3136877,4.44994266e-14 L27.1886533,4.44994266e-14 Z" transform="translate(15.000000, 12.656568) scale(-1, -1) translate(-15.000000, -12.656568) "></path>
                </g>
            </g>
        </g>
    </g>
</svg>