<?xml version="1.0" encoding="UTF-8"?>
<svg width="57px" height="56px" viewBox="0 0 57 56" version="1.1" xmlns="http://www.w3.org/2000/svg" xmlns:xlink="http://www.w3.org/1999/xlink">
    <title>icon/indicator/humid</title>
    <defs>
        <linearGradient x1="50%" y1="-10.854102%" x2="50%" y2="80.1824875%" id="linearGradient-1">
            <stop stop-color="#B3E5FC" offset="0%"></stop>
            <stop stop-color="#81D4FA" offset="100%"></stop>
        </linearGradient>
    </defs>
    <g id="element" stroke="none" stroke-width="1" fill="none" fill-rule="evenodd">
        <g id="Artboard" transform="translate(-109.000000, -200.000000)">
            <g id="Group" transform="translate(109.333333, 200.000000)">
                <rect id="Rectangle-Copy" fill="none" x="0" y="0" width="56" height="56"></rect>
                <path d="M27.75,10 C27.75,10 15,24.5074627 15,33.1044776 C15,40.24 20.71625,46 27.75,46 C34.7916306,46 40.5,40.226478 40.5,33.1044776 C40.5,24.5074627 27.75,10 27.75,10 M32.99875,24.4429851 L35.25125,26.721194 L22.50125,39.6167164 L20.24875,37.3385075 M22.96875,24.5074627 C24.4357564,24.5074627 25.625,25.7102798 25.625,27.1940299 C25.625,28.6777799 24.4357564,29.880597 22.96875,29.880597 C21.5017436,29.880597 20.3125,28.6777799 20.3125,27.1940299 C20.3125,25.7102798 21.5017436,24.5074627 22.96875,24.5074627 M32.53125,34.1791045 C33.9982564,34.1791045 35.1875,35.3819216 35.1875,36.8656716 C35.1875,38.3494217 33.9982564,39.5522388 32.53125,39.5522388 C31.0642436,39.5522388 29.875,38.3494217 29.875,36.8656716 C29.875,35.3819216 31.0642436,34.1791045 32.53125,34.1791045 L32.53125,34.1791045 Z" id="Shape" fill="url(#linearGradient-1)"></path>
            </g>
        </g>
    </g>
</svg>