<?xml version="1.0" encoding="UTF-8"?>
<svg width="57px" height="56px" viewBox="0 0 57 56" version="1.1" xmlns="http://www.w3.org/2000/svg" xmlns:xlink="http://www.w3.org/1999/xlink">
    <title>icon/indicator/no2</title>
    <g id="element" stroke="none" stroke-width="1" fill="none" fill-rule="evenodd">
        <g id="Artboard" transform="translate(-179.000000, -200.000000)">
            <g id="Group" transform="translate(179.666667, 200.000000)">
                <rect id="Rectangle-Copy-4" fill="#FFFFFF" x="0" y="0" width="56" height="56"></rect>
                <g id="Group-3" transform="translate(8.000000, 8.000000)">
                    <g id="Group-2">
                        <circle id="Oval" fill="#F2F4F6" cx="20" cy="20" r="20"></circle>
                        <g id="Group" transform="translate(3.404255, 5.957447)" fill="#D5DBDE">
                            <path d="M26.4998971,25.4807163 L26.4998971,27.5190778 L24.4615356,27.5190778 L24.4615356,25.4807163 L26.4998971,25.4807163 Z M5.09470611,25.4807163 L5.09470611,27.5190778 L3.05634462,27.5190778 L3.05634462,25.4807163 L5.09470611,25.4807163 Z M32.6143828,24.4615356 L32.6143828,26.4998971 L30.5760213,26.4998971 L30.5760213,24.4615356 L32.6143828,24.4615356 Z M11.211587,24.4615356 L11.211587,26.4998971 L9.17322555,26.4998971 L9.17322555,24.4615356 L11.211587,24.4615356 Z M17.3266715,23.4423548 L17.3266715,25.4807163 L15.28831,25.4807163 L15.28831,23.4423548 L17.3266715,23.4423548 Z M2.0383615,22.4225753 L2.0383615,24.4615356 L0,24.4615356 L0,22.4225753 L2.0383615,22.4225753 Z M23.4423548,22.4225753 L23.4423548,24.4615356 L21.4039933,24.4615356 L21.4039933,22.4225753 L23.4423548,22.4225753 Z M8.15344599,21.4033945 L8.15344599,23.4423548 L6.11508449,23.4423548 L6.115,23.441 L6.11448568,23.441756 L6.11448568,21.4033945 L8.15344599,21.4033945 Z M29.5580381,21.4033945 L29.5580381,23.4423548 L27.5196766,23.4423548 L27.5196766,21.4033945 L29.5580381,21.4033945 Z M14.2691293,20.3848126 L14.2691293,22.4225753 L12.230169,22.4225753 L12.230169,20.3842138 L14.2691293,20.3848126 Z M20.3842138,19.3656318 L20.3842138,21.4033945 L18.3452535,21.4039933 L18.3452535,19.3656318 L20.3842138,19.3656318 Z M5.09470611,18.3458523 L5.09470611,20.3842138 L3.05634462,20.3842138 L3.05634462,18.3458523 L5.09470611,18.3458523 Z M9.17202792,19.365033 L9.17202792,17.3266715 L11.2103894,17.3266715 L11.21,17.327 L11.211587,17.3272703 L11.211587,19.3656318 L9.17202792,19.365033 Z M15.2877112,18.3458523 L15.2877112,16.3074908 L17.3260727,16.3074908 L17.3266715,18.3458523 L15.2877112,18.3458523 Z M2.0383615,15.28831 L2.0383615,17.3266715 L-7.10542736e-15,17.3266715 L-7.10542736e-15,15.28831 L2.0383615,15.28831 Z M23.4423548,15.28831 L23.4423548,17.3266715 L21.4039933,17.3266715 L21.4039933,15.28831 L23.4423548,15.28831 Z M6.11448568,16.3074908 L6.11448568,14.2691293 L8.15344599,14.2691293 L8.15344599,16.3074908 L6.11448568,16.3074908 Z M29.5580381,14.2691293 L29.5580381,16.3074908 L27.5196766,16.3074908 L27.5196766,14.2691293 L29.5580381,14.2691293 Z M14.2685305,13.2499485 L14.268,13.25 L14.2691293,13.2505474 L14.2691293,15.2889088 L12.230169,15.28831 L12.230169,13.2499485 L14.2685305,13.2499485 Z M20.3842138,12.2307678 L20.3842138,14.2691293 L18.3458523,14.2691293 L18.3458523,12.2307678 L20.3842138,12.2307678 Z M24.4609368,13.2499485 L24.4609368,11.211587 L26.4998971,11.211587 L26.4992983,13.2499485 L24.4609368,13.2499485 Z M5.09470611,11.211587 L5.09470611,13.2499485 L3.05634462,13.2499485 L3.05634462,11.211587 L5.09470611,11.211587 Z M32.6143828,10.1924063 L32.6143828,12.2307678 L30.5760213,12.2307678 L30.5760213,10.1924063 L32.6143828,10.1924063 Z M11.2103894,10.1924063 L11.2103894,12.2307678 L9.17202792,12.2307678 L9.17202792,10.1924063 L11.2103894,10.1924063 Z M15.2877112,11.211587 L15.2877112,9.17322555 L17.3266715,9.17322555 L17.3260727,11.211587 L15.2877112,11.211587 Z M23.4411572,8.15344599 L23.441,8.154 L23.4423548,8.1540448 L23.4423548,10.1924063 L21.4039933,10.1924063 L21.403,10.191 L21.4027957,10.1918075 L21.4027957,8.15344599 L23.4411572,8.15344599 Z M29.5580381,7.13486405 L29.5580381,9.17322555 L27.5196766,9.17322555 L27.5196766,7.13486405 L29.5580381,7.13486405 Z M12.2307678,8.15344599 L12.2307678,6.11508449 L14.2691293,6.11508449 L14.2691293,8.15344599 L12.2307678,8.15344599 Z M18.3458523,7.13486405 L18.3458523,5.09650255 L20.3842138,5.09650255 L20.3842138,7.13486405 L18.3458523,7.13486405 Z M26.4992983,6.1156833 L24.4609368,6.1156833 L24.4609368,4.07672299 L26.4992983,4.07672299 L26.4992983,6.1156833 Z M5.09470611,4.07672299 L5.09470611,6.1156833 L3.05634462,6.1156833 L3.05634462,4.07672299 L5.09470611,4.07672299 Z M32.6143828,3.05754224 L32.6143828,5.09650255 L30.5760213,5.09650255 L30.5760213,3.05754224 L32.6143828,3.05754224 Z M11.2103894,3.05754224 L11.2103894,5.09650255 L9.17202792,5.09650255 L9.17202792,3.05754224 L11.2103894,3.05754224 Z M17.3260727,2.0383615 L17.3260727,4.07672299 L15.2877112,4.07672299 L15.2877112,2.0383615 L17.3260727,2.0383615 Z M23.4411572,1.01918075 L23.4411572,3.05754224 L21.4027957,3.05754224 L21.4027957,1.01918075 L23.4411572,1.01918075 Z M2.0383615,1.01918075 L2.0383615,3.05754224 L-7.10542736e-15,3.05754224 L-7.10542736e-15,1.01918075 L2.0383615,1.01918075 Z M29.5580381,4.83773778e-14 L29.5580381,2.0383615 L27.5196766,2.0383615 L27.5196766,4.83773778e-14 L29.5580381,4.83773778e-14 Z M8.15284717,1.44300647e-13 L8.15284717,2.0383615 L6.11448568,2.0383615 L6.11448568,1.44300647e-13 L8.15284717,1.44300647e-13 Z" id="Combined-Shape"></path>
                        </g>
                    </g>
                    <g id="NO2" transform="translate(4.255319, 13.617021)" fill="#E8720C">
                        <path d="M19.0605744,0 C20.2867884,0 21.3882107,0.255009107 22.3648413,0.765027322 C23.3414719,1.27504554 24.1064992,1.98310274 24.6599233,2.88919893 C25.2133473,3.79529512 25.4900593,4.81804441 25.4900593,5.95744681 C25.4900593,7.0968492 25.2133473,8.1195985 24.6599233,9.02569469 C24.1064992,9.93179088 23.3414719,10.6398481 22.3648413,11.1498663 C21.3882107,11.6598845 20.2867884,11.9148936 19.0605744,11.9148936 C17.8343603,11.9148936 16.732938,11.6598845 15.7563074,11.1498663 C14.7796768,10.6398481 14.0146495,9.93179088 13.4612254,9.02569469 C12.9078014,8.1195985 12.6310894,7.0968492 12.6310894,5.95744681 C12.6310894,4.81804441 12.9078014,3.79529512 13.4612254,2.88919893 C14.0146495,1.98310274 14.7796768,1.27504554 15.7563074,0.765027322 C16.732938,0.255009107 17.8343603,0 19.0605744,0 Z M3.15777235,0.260434833 L7.48750145,5.43657714 L7.48750145,0.260434833 L11.2312522,0.260434833 L11.2312522,11.6544588 L8.07347983,11.6544588 L3.74375073,6.47831647 L3.74375073,11.6544588 L0,11.6544588 L0,0.260434833 L3.15777235,0.260434833 Z M28.5990001,4.73991396 C29.3151959,4.73991396 29.8848971,4.91082432 30.3081037,5.25264504 C30.7313103,5.59446576 30.9429136,6.05836531 30.9429136,6.64434368 C30.9429136,7.00895245 30.8647832,7.3540286 30.7085223,7.67957214 C30.5522614,8.00511568 30.2560167,8.37623532 29.8197884,8.79293105 L27.7297989,10.8047901 L31.2359028,10.8047901 L31.2359028,11.6544588 L26.3234508,11.6544588 L26.3234508,10.99035 L29.106848,8.30461574 C29.4454133,7.9790722 29.6732938,7.69747704 29.7904895,7.45983025 C29.9076852,7.22218347 29.966283,6.98290896 29.966283,6.74200674 C29.966283,6.38390885 29.8409487,6.10556912 29.5902802,5.90698756 C29.3396117,5.708406 28.9798861,5.60911522 28.5111034,5.60911522 C27.7558423,5.60911522 27.1731194,5.85652831 26.7629345,6.35135449 L26.0988257,5.77514243 C26.3657714,5.44959888 26.7157307,5.19567492 27.1487036,5.01337054 C27.5816765,4.83106616 28.0651087,4.73991396 28.5990001,4.73991396 Z M19.0605744,3.10894082 C18.5831105,3.10894082 18.1517653,3.22559392 17.7665388,3.45890013 C17.3813123,3.69220633 17.0747587,4.0231756 16.8468783,4.45180793 C16.6189978,4.88044026 16.5050576,5.38231989 16.5050576,5.95744681 C16.5050576,6.53257373 16.6189978,7.03445336 16.8468783,7.46308569 C17.0747587,7.89171802 17.3813123,8.22268728 17.7665388,8.45599349 C18.1517653,8.68929969 18.5831105,8.8059528 19.0605744,8.8059528 C19.5380382,8.8059528 19.9693834,8.68929969 20.3546099,8.45599349 C20.7398365,8.22268728 21.04639,7.89171802 21.2742704,7.46308569 C21.5021509,7.03445336 21.6160912,6.53257373 21.6160912,5.95744681 C21.6160912,5.38231989 21.5021509,4.88044026 21.2742704,4.45180793 C21.04639,4.0231756 20.7398365,3.69220633 20.3546099,3.45890013 C19.9693834,3.22559392 19.5380382,3.10894082 19.0605744,3.10894082 Z" id="Combined-Shape"></path>
                    </g>
                </g>
            </g>
        </g>
    </g>
</svg>