<?xml version="1.0" encoding="UTF-8"?>
<svg width="56px" height="56px" viewBox="0 0 56 56" version="1.1" xmlns="http://www.w3.org/2000/svg" xmlns:xlink="http://www.w3.org/1999/xlink">
    <title>icon/indicator/o3</title>
    <g id="element" stroke="none" stroke-width="1" fill="none" fill-rule="evenodd">
        <g id="Artboard" transform="translate(-250.000000, -200.000000)">
            <g id="Group" transform="translate(250.000000, 200.000000)">
                <rect id="Rectangle-Copy-3" fill="#FFFFFF" x="0" y="0" width="56" height="56"></rect>
                <g id="Group-3" transform="translate(8.000000, 8.000000)">
                    <g id="Group-2">
                        <circle id="Oval" fill="#F2F4F6" cx="20" cy="20" r="20"></circle>
                        <g id="Group" transform="translate(3.404255, 5.957447)" fill="#E5EAED">
                            <path d="M26.4998971,25.4807163 L26.4998971,27.5190778 L24.4615356,27.5190778 L24.4615356,25.4807163 L26.4998971,25.4807163 Z M5.09470611,25.4807163 L5.09470611,27.5190778 L3.05634462,27.5190778 L3.05634462,25.4807163 L5.09470611,25.4807163 Z M32.6143828,24.4615356 L32.6143828,26.4998971 L30.5760213,26.4998971 L30.5760213,24.4615356 L32.6143828,24.4615356 Z M11.211587,24.4615356 L11.211587,26.4998971 L9.17322555,26.4998971 L9.17322555,24.4615356 L11.211587,24.4615356 Z M17.3266715,23.4423548 L17.3266715,25.4807163 L15.28831,25.4807163 L15.28831,23.4423548 L17.3266715,23.4423548 Z M2.0383615,22.4225753 L2.0383615,24.4615356 L0,24.4615356 L0,22.4225753 L2.0383615,22.4225753 Z M23.4423548,22.4225753 L23.4423548,24.4615356 L21.4039933,24.4615356 L21.4039933,22.4225753 L23.4423548,22.4225753 Z M8.15344599,21.4033945 L8.15344599,23.4423548 L6.11508449,23.4423548 L6.115,23.441 L6.11448568,23.441756 L6.11448568,21.4033945 L8.15344599,21.4033945 Z M29.5580381,21.4033945 L29.5580381,23.4423548 L27.5196766,23.4423548 L27.5196766,21.4033945 L29.5580381,21.4033945 Z M14.2691293,20.3848126 L14.2691293,22.4225753 L12.230169,22.4225753 L12.230169,20.3842138 L14.2691293,20.3848126 Z M20.3842138,19.3656318 L20.3842138,21.4033945 L18.3452535,21.4039933 L18.3452535,19.3656318 L20.3842138,19.3656318 Z M5.09470611,18.3458523 L5.09470611,20.3842138 L3.05634462,20.3842138 L3.05634462,18.3458523 L5.09470611,18.3458523 Z M9.17202792,19.365033 L9.17202792,17.3266715 L11.2103894,17.3266715 L11.21,17.327 L11.211587,17.3272703 L11.211587,19.3656318 L9.17202792,19.365033 Z M15.2877112,18.3458523 L15.2877112,16.3074908 L17.3260727,16.3074908 L17.3266715,18.3458523 L15.2877112,18.3458523 Z M2.0383615,15.28831 L2.0383615,17.3266715 L-7.10542736e-15,17.3266715 L-7.10542736e-15,15.28831 L2.0383615,15.28831 Z M23.4423548,15.28831 L23.4423548,17.3266715 L21.4039933,17.3266715 L21.4039933,15.28831 L23.4423548,15.28831 Z M6.11448568,16.3074908 L6.11448568,14.2691293 L8.15344599,14.2691293 L8.15344599,16.3074908 L6.11448568,16.3074908 Z M29.5580381,14.2691293 L29.5580381,16.3074908 L27.5196766,16.3074908 L27.5196766,14.2691293 L29.5580381,14.2691293 Z M14.2685305,13.2499485 L14.268,13.25 L14.2691293,13.2505474 L14.2691293,15.2889088 L12.230169,15.28831 L12.230169,13.2499485 L14.2685305,13.2499485 Z M20.3842138,12.2307678 L20.3842138,14.2691293 L18.3458523,14.2691293 L18.3458523,12.2307678 L20.3842138,12.2307678 Z M24.4609368,13.2499485 L24.4609368,11.211587 L26.4998971,11.211587 L26.4992983,13.2499485 L24.4609368,13.2499485 Z M5.09470611,11.211587 L5.09470611,13.2499485 L3.05634462,13.2499485 L3.05634462,11.211587 L5.09470611,11.211587 Z M32.6143828,10.1924063 L32.6143828,12.2307678 L30.5760213,12.2307678 L30.5760213,10.1924063 L32.6143828,10.1924063 Z M11.2103894,10.1924063 L11.2103894,12.2307678 L9.17202792,12.2307678 L9.17202792,10.1924063 L11.2103894,10.1924063 Z M15.2877112,11.211587 L15.2877112,9.17322555 L17.3266715,9.17322555 L17.3260727,11.211587 L15.2877112,11.211587 Z M23.4411572,8.15344599 L23.441,8.154 L23.4423548,8.1540448 L23.4423548,10.1924063 L21.4039933,10.1924063 L21.403,10.191 L21.4027957,10.1918075 L21.4027957,8.15344599 L23.4411572,8.15344599 Z M29.5580381,7.13486405 L29.5580381,9.17322555 L27.5196766,9.17322555 L27.5196766,7.13486405 L29.5580381,7.13486405 Z M12.2307678,8.15344599 L12.2307678,6.11508449 L14.2691293,6.11508449 L14.2691293,8.15344599 L12.2307678,8.15344599 Z M18.3458523,7.13486405 L18.3458523,5.09650255 L20.3842138,5.09650255 L20.3842138,7.13486405 L18.3458523,7.13486405 Z M26.4992983,6.1156833 L24.4609368,6.1156833 L24.4609368,4.07672299 L26.4992983,4.07672299 L26.4992983,6.1156833 Z M5.09470611,4.07672299 L5.09470611,6.1156833 L3.05634462,6.1156833 L3.05634462,4.07672299 L5.09470611,4.07672299 Z M32.6143828,3.05754224 L32.6143828,5.09650255 L30.5760213,5.09650255 L30.5760213,3.05754224 L32.6143828,3.05754224 Z M11.2103894,3.05754224 L11.2103894,5.09650255 L9.17202792,5.09650255 L9.17202792,3.05754224 L11.2103894,3.05754224 Z M17.3260727,2.0383615 L17.3260727,4.07672299 L15.2877112,4.07672299 L15.2877112,2.0383615 L17.3260727,2.0383615 Z M23.4411572,1.01918075 L23.4411572,3.05754224 L21.4027957,3.05754224 L21.4027957,1.01918075 L23.4411572,1.01918075 Z M2.0383615,1.01918075 L2.0383615,3.05754224 L-7.10542736e-15,3.05754224 L-7.10542736e-15,1.01918075 L2.0383615,1.01918075 Z M29.5580381,0 L29.5580381,2.0383615 L27.5196766,2.0383615 L27.5196766,0 L29.5580381,0 Z M8.15284717,9.59232693e-14 L8.15284717,2.0383615 L6.11448568,2.0383615 L6.11448568,9.59232693e-14 L8.15284717,9.59232693e-14 Z" id="Combined-Shape"></path>
                        </g>
                    </g>
                    <g id="O3" transform="translate(11.063830, 11.063830)" fill="#0050E8">
                        <path d="M8.08510638,15.3191489 C6.54313673,15.3191489 5.15809319,14.9912801 3.92997576,14.3355424 C2.70185834,13.6798047 1.73983302,12.7694454 1.04389981,11.6044646 C0.347966604,10.4394838 0,9.1245204 0,7.65957447 C0,6.19462853 0.347966604,4.87966516 1.04389981,3.71468434 C1.73983302,2.54970352 2.70185834,1.63934426 3.92997576,0.983606557 C5.15809319,0.327868852 6.54313673,0 8.08510638,0 C9.62707604,0 11.0121196,0.327868852 12.240237,0.983606557 C13.4683544,1.63934426 14.4303797,2.54970352 15.126313,3.71468434 C15.8222462,4.87966516 16.1702128,6.19462853 16.1702128,7.65957447 C16.1702128,9.1245204 15.8222462,10.4394838 15.126313,11.6044646 C14.4303797,12.7694454 13.4683544,13.6798047 12.240237,14.3355424 C11.0121196,14.9912801 9.62707604,15.3191489 8.08510638,15.3191489 Z M8.08510638,11.3219393 C8.68551935,11.3219393 9.22793788,11.1719567 9.71236197,10.8719916 C10.1967861,10.5720265 10.5822785,10.1464946 10.8688392,9.59539588 C11.1553999,9.04429717 11.2986803,8.39902337 11.2986803,7.65957447 C11.2986803,6.92012557 11.1553999,6.27485176 10.8688392,5.72375305 C10.5822785,5.17265434 10.1967861,4.74712243 9.71236197,4.44715731 C9.22793788,4.14719219 8.68551935,3.99720963 8.08510638,3.99720963 C7.48469342,3.99720963 6.94227489,4.14719219 6.45785079,4.44715731 C5.9734267,4.74712243 5.58793428,5.17265434 5.30137355,5.72375305 C5.01481282,6.27485176 4.87153245,6.92012557 4.87153245,7.65957447 C4.87153245,8.39902337 5.01481282,9.04429717 5.30137355,9.59539588 C5.58793428,10.1464946 5.9734267,10.5720265 6.45785079,10.8719916 C6.94227489,11.1719567 7.48469342,11.3219393 8.08510638,11.3219393 Z" id="O"></path>
                        <path d="M20.0635852,10.8402452 C20.7353061,10.9123693 21.2472487,11.1413631 21.5994131,11.5272268 C21.9515774,11.9130905 22.1276596,12.4053372 22.1276596,13.0039668 C22.1276596,13.4367111 22.0298361,13.8279841 21.8341893,14.1777858 C21.6385424,14.5275875 21.3467025,14.8052651 20.9586696,15.0108186 C20.5706367,15.2163722 20.096193,15.3191489 19.5353387,15.3191489 C19.0462216,15.3191489 18.5766691,15.2380094 18.1266813,15.0757303 C17.6766936,14.9134511 17.3082253,14.6880635 17.0212766,14.3995673 L17.4712644,13.5448972 C17.7060406,13.790119 18.0060324,13.9866571 18.3712399,14.1345114 C18.7364474,14.2823657 19.1244803,14.3562928 19.5353387,14.3562928 C20.0440205,14.3562928 20.4402054,14.2372881 20.7238934,13.9992788 C21.0075813,13.7612694 21.1494253,13.4331049 21.1494253,13.0147854 C21.1494253,12.5964659 21.0092117,12.2719077 20.7287845,12.0411107 C20.4483574,11.8103137 20.0244559,11.6949153 19.45708,11.6949153 L18.9092688,11.6949153 L18.9092688,10.9376127 L20.6309611,8.60079336 L17.3343116,8.60079336 L17.3343116,7.65957447 L21.853754,7.65957447 L21.853754,8.39523981 L20.0635852,10.8402452 Z" id="3"></path>
                    </g>
                </g>
            </g>
        </g>
    </g>
</svg>