<?xml version="1.0" encoding="UTF-8"?>
<svg width="56px" height="56px" viewBox="0 0 56 56" version="1.1" xmlns="http://www.w3.org/2000/svg" xmlns:xlink="http://www.w3.org/1999/xlink">
    <title>icon/indicator/temp</title>
    <defs>
        <linearGradient x1="50%" y1="0%" x2="50%" y2="82.4798975%" id="linearGradient-1">
            <stop stop-color="#FA4D56" offset="0%"></stop>
            <stop stop-color="#CE1A25" offset="100%"></stop>
        </linearGradient>
    </defs>
    <g id="element" stroke="none" stroke-width="1" fill="none" fill-rule="evenodd">
        <g id="Artboard" transform="translate(-314.000000, -200.000000)">
            <g id="Group" transform="translate(314.000000, 200.000000)">
                <rect id="Rectangle-Copy-2" fill="none" x="0" y="0" width="56" height="56"></rect>
                <path d="M33.3996522,29.8 L33.3996522,15.4 C33.3996522,12.4176624 30.9821456,10 28,10 C25.0178544,10 22.6003478,12.4176624 22.6003478,15.4 L22.6003478,29.8 C19.5014485,32.1243242 18.2374528,36.1709706 19.4624003,39.8460499 C20.6873478,43.5211291 24.1263758,46 28,46 C31.8736242,46 35.3126522,43.5211291 36.5375997,39.8460499 C37.7625472,36.1709706 36.4985515,32.1243242 33.3996522,29.8 M28,13.6 C28.9940485,13.6 29.7998841,14.4058875 29.7998841,15.4 L29.7998841,20.8 L26.2001159,20.8 L26.2001159,15.4 C26.2001159,14.4058875 27.0059515,13.6 28,13.6 Z" id="Shape" fill="url(#linearGradient-1)"></path>
            </g>
        </g>
    </g>
</svg>