<?xml version="1.0" encoding="UTF-8"?>
<svg width="18px" height="18px" viewBox="0 0 18 18" version="1.1" xmlns="http://www.w3.org/2000/svg" xmlns:xlink="http://www.w3.org/1999/xlink">
    <title>icon/download</title>
    <defs>
        <path d="M19,12 L19,19 L5,19 L5,12 L3,12 L3,19 C3,20.1 3.9,21 5,21 L19,21 C20.1,21 21,20.1 21,19 L21,12 L19,12 Z M13,12.67 L15.59,10.09 L17,11.5 L12,16.5 L7,11.5 L8.41,10.09 L11,12.67 L11,3 L13,3 L13,12.67 Z" id="path-1"></path>
    </defs>
    <g id="element" stroke="none" stroke-width="1" fill="none" fill-rule="evenodd">
        <g id="Artboard" transform="translate(-58.000000, -519.000000)">
            <g id="Group" transform="translate(55.000000, 516.000000)">
                <rect id="Rectangle" x="0" y="0" width="24" height="24"></rect>
                <mask id="mask-2" fill="white">
                    <use xlink:href="#path-1"></use>
                </mask>
                <use id="icon/content/save_alt_24px" fill="#98A8AF" fill-rule="nonzero" xlink:href="#path-1"></use>
            </g>
        </g>
    </g>
</svg>