<?xml version="1.0" encoding="UTF-8"?>
<svg width="18px" height="18px" viewBox="0 0 18 18" version="1.1" xmlns="http://www.w3.org/2000/svg" xmlns:xlink="http://www.w3.org/1999/xlink">
    <title>icon/map</title>
    <g id="element" stroke="none" stroke-width="1" fill="none" fill-rule="evenodd">
        <g id="Artboard" transform="translate(-385.000000, -385.000000)">
            <g id="icon/setting-copy" transform="translate(382.000000, 382.000000)">
                <path d="M15,19 L9,16.89 L9,5 L15,7.11 M20.5,3 C20.44,3 20.39,3 20.34,3 L15,5.1 L9,3 L3.36,4.9 C3.15,4.97 3,5.15 3,5.38 L3,20.5 C3,20.7761424 3.22385763,21 3.5,21 C3.55,21 3.61,21 3.66,20.97 L9,18.9 L15,21 L20.64,19.1 C20.85,19 21,18.85 21,18.62 L21,3.5 C21,3.22385763 20.7761424,3 20.5,3 Z" id="Shape" fill="#98A8AF" fill-rule="nonzero"></path>
                <rect id="Rectangle" x="0" y="0" width="24" height="24"></rect>
            </g>
        </g>
    </g>
</svg>