<?xml version="1.0" encoding="UTF-8"?>
<svg width="18px" height="18px" viewBox="0 0 18 18" version="1.1" xmlns="http://www.w3.org/2000/svg" xmlns:xlink="http://www.w3.org/1999/xlink">
    <title>icon/menu</title>
    <g id="element" stroke="none" stroke-width="1" fill="none" fill-rule="evenodd">
        <g id="Artboard" transform="translate(-58.000000, -385.000000)">
            <g id="Group" transform="translate(55.000000, 382.000000)">
                <rect id="Rectangle" x="0" y="0" width="24" height="24"></rect>
                <path d="M13.5,18 L13.5,21 L10.5,21 L10.5,18 L13.5,18 Z M6,18 L6,21 L3,21 L3,18 L6,18 Z M21,18 L21,21 L18,21 L18,18 L21,18 Z M13.5,10.5 L13.5,13.5 L10.5,13.5 L10.5,10.5 L13.5,10.5 Z M6,10.5 L6,13.5 L3,13.5 L3,10.5 L6,10.5 Z M21,10.5 L21,13.5 L18,13.5 L18,10.5 L21,10.5 Z M13.5,3 L13.5,6 L10.5,6 L10.5,3 L13.5,3 Z M6,3 L6,6 L3,6 L3,3 L6,3 Z M21,3 L21,6 L18,6 L18,3 L21,3 Z" id="Combined-Shape" fill="#98A8AF" fill-rule="nonzero"></path>
            </g>
        </g>
    </g>
</svg>