<?xml version="1.0" encoding="UTF-8"?>
<svg width="22px" height="22px" viewBox="0 0 22 22" version="1.1" xmlns="http://www.w3.org/2000/svg" xmlns:xlink="http://www.w3.org/1999/xlink">
    <title>icon/profile</title>
    <g id="element" stroke="none" stroke-width="1" fill="none" fill-rule="evenodd">
        <g id="Artboard" transform="translate(-126.000000, -383.000000)">
            <g id="Group" transform="translate(125.000000, 382.000000)">
                <path d="M6.005325,18.6975 C6.03231702,16.6483167 7.70063918,15.0010119 9.75,15 L14.25,15 C16.2993442,15.0010523 17.9676427,16.6483338 17.994675,18.6975 C14.5877991,21.7674859 9.4122009,21.7674859 6.005325,18.6975 L6.005325,18.6975 Z M15.375,9.375 C15.375,11.238961 13.863961,12.75 12,12.75 C10.136039,12.75 8.625,11.238961 8.625,9.375 C8.625,7.51103897 10.136039,6 12,6 C13.863961,6 15.375,7.51103897 15.375,9.375 Z" id="_inner-path_"></path>
                <path d="M20.061675,18.6975 C23.0208492,15.1362046 23.2956431,10.0561708 20.7378935,6.19644879 C18.1801438,2.33672678 13.3946744,0.610013993 8.9617122,1.94731857 C4.52875002,3.28462316 1.49654502,7.36971649 1.49999705,12 C1.5005874,14.4496497 2.36385656,16.8208452 3.938325,18.6975 L3.923325,18.70995 C3.975825,18.773325 4.035825,18.827475 4.089975,18.88935 C4.157475,18.96705 4.229775,19.03935 4.299975,19.11495 C4.509975,19.342425 4.725525,19.56135 4.952475,19.76745 C5.0211,19.829775 5.092275,19.88835 5.162475,19.948725 C5.402475,20.15565 5.648775,20.351625 5.904975,20.5347 C5.93805,20.5581 5.967375,20.586675 6.000675,20.61015 L6.000675,20.600625 C9.59976529,23.1333222 14.4015847,23.1333222 18.000675,20.600625 L18.000675,20.61 C18.033975,20.586525 18.0633,20.55795 18.096375,20.53455 C18.352275,20.351475 18.598875,20.1555 18.838875,19.948575 C18.909075,19.888575 18.98025,19.829625 19.048875,19.7673 C19.27575,19.561125 19.491375,19.3422 19.701375,19.1148 C19.77135,19.03935 19.843425,18.9669 19.911375,18.8892 C19.9653,18.827325 20.025525,18.773175 20.078025,18.7098 L20.061675,18.6975 Z M12,6 C13.863961,6 15.375,7.51103897 15.375,9.375 C15.375,11.238961 13.863961,12.75 12,12.75 C10.136039,12.75 8.625,11.238961 8.625,9.375 C8.625,7.51103897 10.136039,6 12,6 Z M6.005325,18.6975 C6.03227677,16.6482996 7.70062256,15.0009714 9.75,15 L14.25,15 C16.2993608,15.0010119 17.967683,16.6483167 17.994675,18.6975 C14.5877991,21.7674859 9.4122009,21.7674859 6.005325,18.6975 L6.005325,18.6975 Z" id="Shape" fill="#98A8AF" fill-rule="nonzero"></path>
                <rect id="_Transparent_Rectangle_" x="0" y="0" width="24" height="24"></rect>
            </g>
        </g>
    </g>
</svg>