<?xml version="1.0" encoding="UTF-8"?>
<svg width="22px" height="22px" viewBox="0 0 22 22" version="1.1" xmlns="http://www.w3.org/2000/svg" xmlns:xlink="http://www.w3.org/1999/xlink">
    <title>icon/setting</title>
    <g id="element" stroke="none" stroke-width="1" fill="none" fill-rule="evenodd">
        <g id="Artboard" transform="translate(-193.000000, -383.000000)">
            <g id="Group" transform="translate(192.000000, 382.000000)">
                <path d="M20.25,12.57 C20.25,12.3825 20.25,12.195 20.25,12 C20.25,11.805 20.25,11.6175 20.25,11.4225 L21.69,10.1625 C22.2380405,9.67945598 22.3583903,8.87184549 21.975,8.25 L20.205,5.25 C19.9373257,4.78637394 19.4428488,4.50054911 18.9075,4.5 C18.7444876,4.49875115 18.5823616,4.52408333 18.4275,4.575 L16.605,5.19 C16.290345,4.98090554 15.9621193,4.79299006 15.6225,4.6275 L15.24,2.7375 C15.0984473,2.02482634 14.466462,1.51607823 13.74,1.53 L10.23,1.53 C9.50353795,1.51607823 8.87155272,2.02482634 8.73,2.7375 L8.3475,4.6275 C8.00544981,4.79295003 7.67472681,4.98086083 7.3575,5.19 L5.5725,4.545 C5.41597285,4.50421768 5.25387973,4.48902145 5.0925,4.5 C4.55715121,4.50054911 4.06267425,4.78637394 3.795,5.25 L2.025,8.25 C1.66395036,8.87026017 1.79284818,9.65936637 2.3325,10.1325 L3.75,11.43 C3.75,11.6175 3.75,11.805 3.75,12 C3.75,12.195 3.75,12.3825 3.75,12.5775 L2.3325,13.8375 C1.77693801,14.3144933 1.64695921,15.122898 2.025,15.75 L3.795,18.75 C4.06267425,19.2136261 4.55715121,19.4994509 5.0925,19.5 C5.25551245,19.5012488 5.41763842,19.4759167 5.5725,19.425 L7.395,18.81 C7.70965497,19.0190945 8.03788067,19.2070099 8.3775,19.3725 L8.76,21.2625 C8.90155272,21.9751737 9.53353795,22.4839218 10.26,22.47 L13.8,22.47 C14.526462,22.4839218 15.1584473,21.9751737 15.3,21.2625 L15.6825,19.3725 C16.0245502,19.20705 16.3552732,19.0191392 16.6725,18.81 L18.4875,19.425 C18.6423616,19.4759167 18.8044876,19.5012488 18.9675,19.5 C19.5028488,19.4994509 19.9973257,19.2136261 20.265,18.75 L21.975,15.75 C22.3360496,15.1297398 22.2071518,14.3406336 21.6675,13.8675 L20.25,12.57 Z M18.9075,18 L16.335,17.13 C15.7327985,17.6400811 15.0445477,18.0388094 14.3025,18.3075 L13.77,21 L10.23,21 L9.6975,18.3375 C8.96131622,18.0611833 8.2767884,17.6631431 7.6725,17.16 L5.0925,18 L3.3225,15 L5.3625,13.2 C5.22382267,12.4236442 5.22382267,11.6288558 5.3625,10.8525 L3.3225,9 L5.0925,6 L7.665,6.87 C8.26720153,6.35991893 8.95545233,5.9611906 9.6975,5.6925 L10.23,3 L13.77,3 L14.3025,5.6625 C15.0386838,5.93881666 15.7232116,6.33685691 16.3275,6.84 L18.9075,6 L20.6775,9 L18.6375,10.8 C18.7761773,11.5763558 18.7761773,12.3711442 18.6375,13.1475 L20.6775,15 L18.9075,18 Z" id="Shape" fill="#98A8AF" fill-rule="nonzero"></path>
                <path d="M12,16.5 C9.51471863,16.5 7.5,14.4852814 7.5,12 C7.5,9.51471863 9.51471863,7.5 12,7.5 C14.4852814,7.5 16.5,9.51471863 16.5,12 C16.5121548,13.197159 16.0419532,14.3488274 15.1953903,15.1953903 C14.3488274,16.0419532 13.197159,16.5121548 12,16.5 Z M12,9 C11.1987743,8.98133509 10.4248198,9.29140816 9.85811399,9.85811399 C9.29140816,10.4248198 8.98133509,11.1987743 9,12 C8.98133509,12.8012257 9.29140816,13.5751802 9.85811399,14.141886 C10.4248198,14.7085918 11.1987743,15.0186649 12,15 C12.8012257,15.0186649 13.5751802,14.7085918 14.141886,14.141886 C14.7085918,13.5751802 15.0186649,12.8012257 15,12 C15.0186649,11.1987743 14.7085918,10.4248198 14.141886,9.85811399 C13.5751802,9.29140816 12.8012257,8.98133509 12,9 Z" id="Shape" fill="#98A8AF" fill-rule="nonzero"></path>
                <rect id="_Transparent_Rectangle_" x="0" y="0" width="24" height="24"></rect>
            </g>
        </g>
    </g>
</svg>