<?xml version="1.0" encoding="UTF-8"?>
<svg width="21px" height="21px" viewBox="0 0 21 21" version="1.1" xmlns="http://www.w3.org/2000/svg" xmlns:xlink="http://www.w3.org/1999/xlink">
    <title>icon/action/zoom_in</title>
    <g id="element" stroke="none" stroke-width="1" fill="none" fill-rule="evenodd">
        <g id="Artboard" transform="translate(-387.000000, -493.000000)" fill="#98A8AF" fill-rule="nonzero">
            <path d="M399.5,501 L396.5,501 L396.5,498 L395,498 L395,501 L392,501 L392,502.5 L395,502.5 L395,505.5 L396.5,505.5 L396.5,502.5 L399.5,502.5 L399.5,501 L399.5,501 Z M402.085925,507 C403.323308,505.530598 404.00129,503.671004 404,501.75 C404,497.193651 400.306349,493.5 395.75,493.5 C391.193651,493.5 387.5,497.193651 387.5,501.75 C387.5,506.306349 391.193651,510 395.75,510 C397.671004,510.00129 399.530598,509.323308 401,508.085925 L406.689425,513.75 L407.75,512.689425 L402.085925,507 Z M395.75,508.5 C392.022078,508.5 389,505.477922 389,501.75 C389,498.022078 392.022078,495 395.75,495 C399.477922,495 402.5,498.022078 402.5,501.75 C402.495867,505.476209 399.476209,508.495867 395.75,508.5 Z" id="icon/action/zoom_in"></path>
        </g>
    </g>
</svg>