<?xml version="1.0" encoding="UTF-8"?>
<svg width="21px" height="21px" viewBox="0 0 21 21" version="1.1" xmlns="http://www.w3.org/2000/svg" xmlns:xlink="http://www.w3.org/1999/xlink">
    <title>icon/action/zoom_out</title>
    <g id="element" stroke="none" stroke-width="1" fill="none" fill-rule="evenodd">
        <g id="Artboard" transform="translate(-426.000000, -493.000000)" fill="#98A8AF" fill-rule="nonzero">
            <path d="M430.5,501 L438,501 L438,502.5 L430.5,502.5 L430.5,501 Z M440.585925,507 C441.823308,505.530598 442.50129,503.671004 442.5,501.75 C442.5,497.193651 438.806349,493.5 434.25,493.5 C429.693651,493.5 426,497.193651 426,501.75 C426,506.306349 429.693651,510 434.25,510 C436.171004,510.00129 438.030598,509.323308 439.5,508.085925 L445.189425,513.75 L446.25,512.689425 L440.585925,507 Z M434.25,508.5 C430.522078,508.5 427.5,505.477922 427.5,501.75 C427.5,498.022078 430.522078,495 434.25,495 C437.977922,495 441,498.022078 441,501.75 C440.995867,505.476209 437.976209,508.495867 434.25,508.5 Z" id="icon/action/zoom_out"></path>
        </g>
    </g>
</svg>