<?xml version="1.0" encoding="UTF-8"?>
<svg width="61px" height="32px" viewBox="0 0 61 32" version="1.1" xmlns="http://www.w3.org/2000/svg" xmlns:xlink="http://www.w3.org/1999/xlink">
    <title>img/logo</title>
    <defs>
        <polygon id="path-1" points="0 32 61 32 61 0 0 0"></polygon>
    </defs>
    <g id="Symbols" stroke="none" stroke-width="1" fill="none" fill-rule="evenodd">
        <g id="components/gnb/detail/general/light" transform="translate(-24.000000, -16.000000)">
            <g id="img/logo" transform="translate(24.000000, 16.000000)">
                <path d="M6.94597121,11.4505378 C6.40326659,10.7331007 5.53598062,10.368615 4.65677598,10.368615 C2.61417,10.368615 1.16483622,12.1172237 1.16483622,14.068145 C1.16483622,16.1327951 2.60063131,17.768021 4.65677598,17.768021 C5.76972547,17.768021 6.66212165,17.3268318 7.30781287,16.5233484 L8.12291124,17.1896883 C7.30781287,18.2604227 6.11814415,18.750979 4.65677598,18.750979 C2.03108074,18.750979 4.62861089e-05,16.7744514 4.62861089e-05,14.068145 C4.62861089e-05,11.4505378 1.94012854,9.38704115 4.65677598,9.38704115 C5.89782228,9.38704115 7.11387407,9.801932 7.89078641,10.7841979 L6.94597121,11.4505378 Z" id="Fill-1" fill="#1E1718"></path>
                <mask id="mask-2" fill="white">
                    <use xlink:href="#path-1"></use>
                </mask>
                <g id="Clip-4"></g>
                <polygon id="Fill-3" fill="#1E1718" mask="url(#mask-2)" points="16.853698 18.3986851 17.8650494 18.3986851 17.8650494 8.80878918 16.853698 8.80878918"></polygon>
                <path d="M19.2391336,15.3053664 C19.2391336,17.1420975 20.610591,18.3986505 22.4729126,18.3986505 C24.3345399,18.3986505 25.707733,17.1420975 25.707733,15.3053664 C25.707733,13.4688659 24.3345399,12.2104674 22.4729126,12.2104674 C20.610591,12.2104674 19.2391336,13.4688659 19.2391336,15.3053664 M20.3251214,15.3053664 C20.3251214,14.0713054 21.1672972,13.1152225 22.4729126,13.1152225 C23.7780651,13.1152225 24.618968,14.0713054 24.618968,15.3053664 C24.618968,16.5379279 23.7780651,17.4938954 22.4729126,17.4938954 C21.1672972,17.4938954 20.3251214,16.5379279 20.3251214,15.3053664" id="Fill-5" fill="#1E1718" mask="url(#mask-2)"></path>
                <path d="M27.2882416,13.9077251 C27.2882416,13.3680325 27.2357069,12.9033132 27.2357069,12.5120678 L28.1917465,12.5120678 C28.1917465,12.8245336 28.2190553,13.1534935 28.2190553,13.478647 L28.2457855,13.478647 C28.5173692,12.9033132 29.2670885,12.360737 30.2628184,12.360737 C30.3933452,12.360737 30.5350964,12.3740016 30.6780048,12.4224459 L30.6129728,13.418899 C30.4444914,13.3680325 30.2506683,13.3413882 30.0686482,13.3413882 C28.8404463,13.3413882 28.2964688,14.1842037 28.2964688,15.531186 L28.2964688,18.3987428 L27.2882416,18.3987428 L27.2882416,13.9077251 Z" id="Fill-6" fill="#1E1718" mask="url(#mask-2)"></path>
                <path d="M32.9070975,13.3413651 L31.5872491,13.3413651 L31.5872491,12.5120448 L32.9070975,12.5120448 L32.9070975,11.2512241 C32.9070975,9.81565789 33.4241134,8.79763546 35.0561616,8.79763546 C35.312008,8.79763546 35.6353165,8.84873266 35.8311067,8.94977364 L35.6876198,9.82857637 C35.4679922,9.75371839 35.2366774,9.70365928 35.003974,9.70365928 C33.9552465,9.70365928 33.9154404,10.4460106 33.9154404,11.464725 L33.9154404,12.5120448 L35.3905787,12.5120448 L35.3905787,13.3413651 L33.9154404,13.3413651 L33.9154404,18.3987197 L32.9070975,18.3987197 L32.9070975,13.3413651 Z" id="Fill-7" fill="#1E1718" mask="url(#mask-2)"></path>
                <path d="M41.8404554,17.0031892 C41.8404554,17.5451887 41.893453,18.0087546 41.893453,18.3987312 L40.9335948,18.3987312 C40.9335948,18.0864962 40.9086003,17.7563828 40.9086003,17.4309986 L40.8824486,17.4309986 C40.6115592,18.0087546 39.8590628,18.5499467 38.8647214,18.5499467 C37.274215,18.5499467 36.5621032,17.5703336 36.5621032,16.1489547 L36.5621032,12.5120563 L37.5710247,12.5120563 L37.5710247,16.0479137 C37.5710247,17.0296029 38.010627,17.6454223 38.9552108,17.6454223 C40.2620991,17.6454223 40.8314182,16.726826 40.8314182,15.3799591 L40.8314182,12.5120563 L41.8404554,12.5120563 L41.8404554,17.0031892 Z" id="Fill-8" fill="#1E1718" mask="url(#mask-2)"></path>
                <polygon id="Fill-9" fill="#1E1718" mask="url(#mask-2)" points="43.1339091 18.3986851 44.1437563 18.3986851 44.1437563 8.79760085 43.1339091 8.79760085"></polygon>
                <path d="M27.2034918,27.0496842 C26.9212622,27.268837 26.5325746,27.3810664 26.0486533,27.3810664 L25.8269429,27.3744918 L25.5656578,27.3675712 L25.5656578,22.986476 L25.7252292,22.9765564 L26.1673772,22.9592549 C26.508853,22.9592549 26.9006649,22.9857839 27.2183033,23.1860204 C27.9232407,23.6228265 27.9232407,24.7356614 27.9232407,25.1019926 C27.9232407,26.0358142 27.679313,26.6902737 27.2034918,27.0496842 M30.3195883,24.9854955 C30.3195883,21.6272672 27.697596,21.6081202 26.4356052,21.5973932 L23.2337636,21.5973932 C23.2779669,23.290983 23.2647753,24.9778829 23.2647753,26.626258 C23.2647753,26.626258 23.2756526,28.7084403 23.2756526,28.799331 C23.2779669,28.8020993 23.2779669,28.8020993 23.2795869,28.8047522 C23.3881278,28.8047522 26.038239,28.7744168 26.038239,28.7744168 C26.7957111,28.7744168 28.5699734,28.7744168 29.5797049,27.4851063 C30.2652021,26.5996136 30.3195883,25.3476744 30.3195883,24.9854955" id="Fill-10" fill="#1E1718" mask="url(#mask-2)"></path>
                <path d="M39.9088898,28.789746 L42.3154203,28.7599873 L42.6761048,28.7610254 C42.6761048,28.7610254 45.0484993,28.7714063 45.109597,28.7714063 C45.1186228,28.7654085 45.1204742,28.7640243 45.1322772,28.756873 C45.1416501,28.6423369 45.2290151,27.4637562 45.2403552,27.3372243 C43.9797531,27.3810548 42.5571495,27.3970876 41.7162466,27.3970876 L41.5963656,27.3970876 L41.5963656,25.7008449 L44.8101258,25.7008449 C44.8127873,25.6971539 44.8127873,25.6971539 44.8163745,25.6946163 C44.8257474,25.5958822 44.8965652,24.5394504 44.9021195,24.4340264 C44.7973972,24.4369099 41.5719497,24.4776262 41.5719497,24.4776262 L41.5719497,22.8929208 L45.0516236,22.8929208 C45.0586822,22.7810375 45.1156142,21.743868 45.12545,21.5940367 L39.295946,21.5940367 C39.3503322,22.605946 39.3248748,23.0344474 39.3248748,25.5056836 C39.3248748,25.5056836 39.3275363,28.6962023 39.3275363,28.7998962 C39.4314486,28.7980507 39.9088898,28.789746 39.9088898,28.789746" id="Fill-11" fill="#1E1718" mask="url(#mask-2)"></path>
                <path d="M50.795614,25.2781914 C50.8552074,25.8891664 50.842363,26.1681825 50.842363,26.7201015 C50.842363,26.8703942 50.842363,27.0437556 50.8406273,27.2497592 L50.8379658,27.3464171 L50.7184319,27.3844805 C50.5286589,27.4265809 50.470107,27.4326941 50.236015,27.4326941 C49.6521157,27.4326941 49.2001318,27.2612936 48.8930235,26.9259898 C48.5245861,26.5469708 48.3392102,25.9910147 48.3392102,25.2702327 C48.3392102,24.3690533 48.5908909,23.739162 49.1875189,23.3961302 C49.6334855,23.1377606 50.1561714,23.0647481 50.7116047,23.0647481 C51.5983309,23.0647481 52.1259925,23.3061622 52.5819107,23.5742207 C52.5959122,23.3961302 52.6983202,21.9456847 52.7031803,21.8785547 C52.2111589,21.6982727 51.483657,21.4411719 50.3175942,21.4411719 C46.2795941,21.4411719 45.9670471,24.3723983 45.9670471,25.2702327 C45.9670471,26.9679749 46.8358374,27.8388189 47.3514647,28.2052654 C48.0196046,28.6869402 49.0140617,28.9320453 50.3062541,28.9320453 C51.5030972,28.9320453 52.1397626,28.7312322 52.9473395,28.5166931 C52.9496538,28.5103492 52.9496538,28.5103492 52.9506952,28.5070042 C52.9506952,28.4386055 52.9616882,26.8778915 52.9616882,26.8778915 C52.9616882,26.8778915 52.9712926,25.3945731 52.9738383,25.2502783 C51.9990528,25.2889184 51.7786152,25.2889184 50.795614,25.2781914" id="Fill-12" fill="#1E1718" mask="url(#mask-2)"></path>
                <path d="M58.9125196,21.6301162 C58.9569543,22.7685573 58.9919003,23.8127628 58.9919003,25.639113 C58.9919003,26.4226419 58.9919003,26.9895556 58.5844668,27.3521959 C58.3562763,27.5552006 58.1143157,27.6561262 57.7431011,27.6561262 C57.1750548,27.6561262 56.7933101,27.4095216 56.6053885,26.9276161 C56.4675716,26.5793939 56.4675716,26.1140979 56.4675716,25.7018599 C56.4675716,24.3094322 56.5057577,22.8745581 56.5380422,21.6000115 C56.4153841,21.6005883 54.2825202,21.627348 54.144819,21.6301162 L54.1927251,26.1255169 C54.215521,26.7787076 54.2394741,27.518406 54.7598457,28.0909715 C55.4378214,28.8506243 56.8146017,28.9643531 57.5767025,28.9643531 C58.5436193,28.9643531 59.4007224,28.7743822 59.9293097,28.445653 C60.8302688,27.8854292 60.882225,27.0234667 60.9296683,26.2472044 L61.0000231,21.6000115 C60.9028223,21.6005883 59.0284663,21.627348 58.9125196,21.6301162" id="Fill-13" fill="#1E1718" mask="url(#mask-2)"></path>
                <path d="M33.5135844,25.7233484 L34.3632816,22.8877419 L35.17028,25.7233484 L33.5135844,25.7233484 Z M38.3103296,28.799331 C38.2602249,28.6454627 35.9867669,21.6829782 35.9592267,21.6018916 C35.9535566,21.5964705 35.9527466,21.5948557 35.9439523,21.5904726 C35.8778788,21.5904726 33.1025638,21.6200006 33.0288531,21.6225381 C33.0259602,21.6247297 33.0259602,21.6272672 33.0186702,21.6296894 C32.9952957,21.6975115 30.5604149,28.6199717 30.4980444,28.799331 L32.678583,28.799331 L33.1769687,26.9893596 L35.5070114,26.9893596 C35.5070114,26.9893596 35.9592267,28.7325471 35.9823697,28.8228611 C35.9867669,28.8259754 35.9703353,28.8259754 35.9758897,28.829205 L38.3103296,28.799331 Z" id="Fill-14" fill="#1E1718" mask="url(#mask-2)"></path>
                <path d="M14.2864274,26.2434096 C13.710281,25.7821506 12.9716704,25.5039419 12.165945,25.5039419 C11.3606824,25.5039419 10.6229976,25.7821506 10.0468512,26.2434096 C9.30349631,26.8382364 8.8283694,27.7411459 8.8283694,28.7529398 C8.8283694,30.5467632 10.3229479,31.9999769 12.165945,31.9999769 C14.0088264,31.9999769 15.5044463,30.5467632 15.5044463,28.7529398 C15.5044463,27.7411459 15.0293194,26.8382364 14.2864274,26.2434096" id="Fill-15" fill="#F9BC00" mask="url(#mask-2)"></path>
                <path d="M12.1659219,18.8422734 C11.7721428,18.8422734 11.395721,18.7726059 11.0452194,18.6518412 C10.9774103,18.6275037 10.910874,18.600744 10.8457263,18.5730615 C10.5566696,18.6942876 10.2861273,18.8500014 10.0464809,19.0441247 C9.3022003,19.6389515 8.82834626,20.5413997 8.82834626,21.5513481 C8.82834626,23.3469016 10.3243133,24.7989619 12.1659219,24.7989619 C14.0098447,24.7989619 15.5045389,23.3469016 15.5045389,21.5513481 C15.5045389,20.5413997 15.0297591,19.6389515 14.2864042,19.0441247 C14.0457164,18.8524237 13.7782985,18.6942876 13.4884317,18.5714467 C13.4544114,18.58598 13.4218954,18.6017821 13.3872965,18.6150466 C13.009139,18.7598028 12.5975398,18.8422734 12.1659219,18.8422734" id="Fill-16" fill="#8C60A5" mask="url(#mask-2)"></path>
                <path d="M15.5044926,15.597324 C15.5044926,14.7584302 15.1756298,13.9953171 14.6398681,13.4219441 C14.6107078,13.4519334 14.5845562,13.4833069 14.5551645,13.5139883 C13.948585,14.1173506 13.1037478,14.4945241 12.1658756,14.4945241 C11.2299704,14.4945241 10.3835132,14.1173506 9.77797521,13.5139883 C9.74881496,13.4833069 9.72220045,13.4519334 9.69419735,13.4219441 C9.15716278,13.9965858 8.82841569,14.7584302 8.82841569,15.597324 C8.82841569,16.9326567 9.6612185,18.0750195 10.84568,18.573073 C10.8800475,18.5599239 10.9140678,18.5435451 10.9483195,18.5308573 C11.3253198,18.3857551 11.7362248,18.3032844 12.1658756,18.3032844 C12.5611589,18.3032844 12.9402422,18.3709911 13.2910909,18.4929093 C13.3582057,18.5170161 13.4237006,18.5450446 13.4883854,18.5714582 C14.6734255,18.0745581 15.5044926,16.9313879 15.5044926,15.597324" id="Fill-17" fill="#E73F30" mask="url(#mask-2)"></path>
                <path d="M12.1659219,18.3032844 C11.7361553,18.3032844 11.3252504,18.3857551 10.9483658,18.5308573 C10.914114,18.5435451 10.8800937,18.5599239 10.8457263,18.573073 C10.910874,18.6007555 10.9774103,18.6275152 11.0452194,18.6517374 C11.395721,18.7725021 11.7721428,18.842285 12.1659219,18.842285 C12.5975398,18.842285 13.009139,18.7598143 13.3872965,18.6150581 C13.4218954,18.6017936 13.4544114,18.5859915 13.4884317,18.5714582 C13.4236311,18.5450446 13.358252,18.5171314 13.2911372,18.4930246 C12.9401727,18.3709911 12.5612052,18.3032844 12.1659219,18.3032844" id="Fill-18" fill="#E73F30" mask="url(#mask-2)"></path>
                <path d="M12.1653664,18.3032844 C11.7357156,18.3032844 11.324695,18.3857551 10.947926,18.5308573 C10.9135586,18.5435451 10.8793069,18.5599239 10.8451709,18.573073 C10.9104343,18.6007555 10.9768549,18.6275152 11.0447797,18.6517374 C11.3951656,18.7725021 11.7715873,18.842285 12.1653664,18.842285 C12.5971001,18.842285 13.0085836,18.7598143 13.3868568,18.6150581 C13.42134,18.6017936 13.453856,18.5859915 13.487992,18.5714582 C13.4231914,18.5450446 13.3576966,18.5171314 13.2906974,18.4930246 C12.9396173,18.3709911 12.5604184,18.3032844 12.1653664,18.3032844" id="Fill-19" fill="#E73F30" mask="url(#mask-2)"></path>
                <path d="M10.0454163,13.0861328 C10.6229513,12.6252199 11.3606361,12.3475879 12.1658987,12.3475879 C12.9716241,12.3475879 13.7103504,12.6252199 14.2863811,13.0861328 C14.3812676,13.1628363 14.4693269,13.2421927 14.5551876,13.3284697 C14.5845793,13.3576516 14.610731,13.3902938 14.6398912,13.421898 C15.1750744,12.8442573 15.5045157,12.0848352 15.5045157,11.2472101 C15.5045157,10.236685 15.0292731,9.33319877 14.2863811,8.73837193 C13.7103504,8.27768967 12.9716241,7.99786614 12.1658987,7.99786614 C11.3606361,7.99786614 10.6229513,8.27768967 10.0454163,8.73837193 C9.30356574,9.33319877 8.82832311,10.236685 8.82832311,11.2472101 C8.82832311,12.0848352 9.15718592,12.8442573 9.6942205,13.421898 C9.72222359,13.3902938 9.7488381,13.3576516 9.77788264,13.3284697 C9.86374337,13.2421927 9.95249698,13.1628363 10.0454163,13.0861328" id="Fill-20" fill="#75BB2A" mask="url(#mask-2)"></path>
                <path d="M12.1659219,14.4953661 C13.1036784,14.4953661 13.9485156,14.1183079 14.5550951,13.514715 C14.5844868,13.4843796 14.6107541,13.4527755 14.6399144,13.4226708 C14.6107541,13.3914127 14.5844868,13.3585398 14.5550951,13.3292425 C14.4693501,13.2431962 14.3812907,13.1639551 14.2864042,13.0872517 C13.7103736,12.6259927 12.9716473,12.3483607 12.1659219,12.3483607 C11.3606593,12.3483607 10.6229744,12.6259927 10.0454395,13.0872517 C9.95252013,13.1639551 9.8636508,13.2431962 9.77790578,13.3292425 C9.74874553,13.3585398 9.72224674,13.3914127 9.69424364,13.4226708 C9.72224674,13.4527755 9.74874553,13.4843796 9.77790578,13.514715 C10.3835595,14.1183079 11.229901,14.4953661 12.1659219,14.4953661" id="Fill-21" fill="#E00615" mask="url(#mask-2)"></path>
                <path d="M12.1659219,14.4953661 C13.1036784,14.4953661 13.9485156,14.1180772 14.5553265,13.5143689 C14.5847182,13.4840336 14.6107541,13.4527755 14.6399144,13.4224401 C14.6107541,13.3910666 14.5847182,13.3581937 14.5553265,13.3292425 C14.4693501,13.2429655 14.3815222,13.1636091 14.2866356,13.0869056 C13.7107207,12.6258773 12.9716473,12.3483607 12.1659219,12.3483607 C11.3606593,12.3483607 10.6229744,12.6258773 10.0454395,13.0869056 C9.95252013,13.1636091 9.8636508,13.2429655 9.77813721,13.3292425 C9.74874553,13.3581937 9.72224674,13.3910666 9.69424364,13.4224401 C9.72224674,13.4527755 9.74874553,13.4840336 9.77813721,13.5143689 C10.3835595,14.1180772 11.229901,14.4953661 12.1659219,14.4953661" id="Fill-22" fill="#E73F30" mask="url(#mask-2)"></path>
                <path d="M12.1659219,6.49531993 C14.0098447,6.49531993 15.5045389,5.04176014 15.5045389,3.24643733 C15.5045389,2.23660429 15.0292963,1.3343868 14.2864042,0.737714467 C13.7103736,0.277493584 12.9716473,-2.30687159e-05 12.1659219,-2.30687159e-05 C11.3606593,-2.30687159e-05 10.6229744,0.277493584 10.0454395,0.737714467 C9.30358888,1.3343868 8.82834626,2.23660429 8.82834626,3.24643733 C8.82834626,5.04176014 10.3243133,6.49531993 12.1659219,6.49531993" id="Fill-23" fill="#4373B8" mask="url(#mask-2)"></path>
            </g>
        </g>
    </g>
</svg>