<?xml version="1.0" encoding="UTF-8"?>
<svg width="24px" height="24px" viewBox="0 0 24 24" version="1.1" xmlns="http://www.w3.org/2000/svg" xmlns:xlink="http://www.w3.org/1999/xlink">
    <title>icon/map/on</title>
    <g id="element" stroke="none" stroke-width="1" fill="none" fill-rule="evenodd">
        <g id="Artboard" transform="translate(-447.000000, -93.000000)">
            <g id="icon/map-copy" transform="translate(443.000000, 89.000000)">
                <path d="M20,25.3333333 L12,22.52 L12,6.66666667 L20,9.48 M27.3333333,4 C27.2533333,4 27.1866667,4 27.12,4 L20,6.8 L12,4 L4.48,6.53333333 C4.2,6.62666667 4,6.86666667 4,7.17333333 L4,27.3333333 C4,27.7015232 4.29847683,28 4.66666667,28 C4.73333333,28 4.81333333,28 4.88,27.96 L12,25.2 L20,28 L27.52,25.4666667 C27.8,25.3333333 28,25.1333333 28,24.8266667 L28,4.66666667 C28,4.29847683 27.7015232,4 27.3333333,4 Z" id="Shape" fill="#0050E8"></path>
                <rect id="Rectangle" x="0" y="0" width="32" height="32"></rect>
            </g>
        </g>
    </g>
</svg>