<?xml version="1.0" encoding="UTF-8"?>
<svg width="24px" height="28px" viewBox="0 0 24 28" version="1.1" xmlns="http://www.w3.org/2000/svg" xmlns:xlink="http://www.w3.org/1999/xlink">
    <title>icon/route_detail/off</title>
    <g id="element" stroke="none" stroke-width="1" fill="none" fill-rule="evenodd">
        <g id="Artboard" transform="translate(-47.000000, -91.000000)" fill="#98A8AF" fill-rule="nonzero">
            <g id="icon/statistic/enable-copy" transform="translate(43.000000, 89.000000)">
                <path d="M14.6666667,2.66666667 C8.77333333,2.66666667 4,3.33333333 4,8 L4,21.3333333 C4.0060711,22.4641109 4.49047476,23.539487 5.33333333,24.2933333 L5.33333333,26.6666667 C5.33333333,27.0202887 5.47380912,27.3594272 5.72385763,27.6094757 C5.97390613,27.8595242 6.31304468,28 6.66666667,28 L8,28 C8.73637967,28 9.33333333,27.4030463 9.33333333,26.6666667 L9.33333333,25.3333333 L17.3333333,25.3333333 C16.5361977,23.9009002 16.0799438,22.3040118 16,20.6666667 C16.0240917,18.270881 17.2066145,16.0350184 19.1733333,14.6666667 L6.66666667,14.6666667 L6.66666667,8 L22.6666667,8 L22.6666667,13.3333333 C22.8886789,13.3196704 23.1113211,13.3196704 23.3333333,13.3333333 C24.0105577,13.3354972 24.6840097,13.4342702 25.3333333,13.6266667 L25.3333333,8 C25.3333333,3.33333333 20.56,2.66666667 14.6666667,2.66666667 M8.66666667,18.6666667 C9.77123617,18.6666667 10.6666667,19.5620972 10.6666667,20.6666667 C10.6666667,21.7712362 9.77123617,22.6666667 8.66666667,22.6666667 C7.56209717,22.6666667 6.66666667,21.7712362 6.66666667,20.6666667 C6.66666667,19.5620972 7.56209717,18.6666667 8.66666667,18.6666667 M23.3333333,16 C20.7680396,16.0288262 18.6954929,18.1013729 18.6666667,20.6666667 C18.6666667,24.1333333 23.3333333,29.3333333 23.3333333,29.3333333 C23.3333333,29.3333333 28,24.1333333 28,20.6666667 C27.9711738,18.1013729 25.8986271,16.0288262 23.3333333,16 M23.3333333,22.4 C22.4496777,22.4 21.7333333,21.6836556 21.7333333,20.8 C21.7333333,19.9163444 22.4496777,19.2 23.3333333,19.2 C24.1917875,19.2580674 24.875266,19.9415458 24.9333333,20.8 C24.95247,21.2299278 24.790053,21.6481079 24.4857471,21.9524138 C24.1814412,22.2567197 23.7632611,22.4191367 23.3333333,22.4 Z" id="Shape"></path>
            </g>
        </g>
    </g>
</svg>