<?xml version="1.0" encoding="UTF-8"?>
<svg width="24px" height="28px" viewBox="0 0 24 28" version="1.1" xmlns="http://www.w3.org/2000/svg" xmlns:xlink="http://www.w3.org/1999/xlink">
    <title>icon/route_detail/on</title>
    <g id="element" stroke="none" stroke-width="1" fill="none" fill-rule="evenodd">
        <g id="Artboard" transform="translate(-116.000000, -91.000000)">
            <g id="Group" transform="translate(112.000000, 89.000000)">
                <g id="Group" transform="translate(4.000000, 2.666667)">
                    <path d="M19.3333333,13.3333333 C21.8986271,13.3621596 23.9711738,15.4347063 24,18 C24,21.4666667 19.3333333,26.6666667 19.3333333,26.6666667 C19.3333333,26.6666667 14.6666667,21.4666667 14.6666667,18 C14.6954929,15.4347063 16.7680396,13.3621596 19.3333333,13.3333333 Z M19.3333333,16.5333333 C18.4496777,16.5333333 17.7333333,17.2496777 17.7333333,18.1333333 C17.7333333,19.0169889 18.4496777,19.7333333 19.3333333,19.7333333 C19.7632611,19.75247 20.1814412,19.590053 20.4857471,19.2857471 C20.790053,18.9814412 20.95247,18.5632611 20.9333333,18.1333333 C20.875266,17.2748791 20.1917875,16.5914007 19.3333333,16.5333333 Z" id="Combined-Shape" fill="#37474F"></path>
                    <path d="M10.9704767,0.000611614526 C16.7231788,0.0241775664 21.3333333,0.747126437 21.3333333,5.33333333 L21.3333333,5.33333333 L21.3333333,10.96 C20.6840097,10.7676035 20.0105577,10.6688306 19.3333333,10.6666667 C19.1113211,10.6530038 18.8886789,10.6530038 18.6666667,10.6666667 L18.6666667,10.6666667 L18.6666667,5.33333333 L2.66666667,5.33333333 L2.66666667,12 L15.1733333,12 C13.2066145,13.3683518 12.0240917,15.6042143 12,18 C12.0799438,19.6373451 12.5361977,21.2342335 13.3333333,22.6666667 L13.3333333,22.6666667 L5.33333333,22.6666667 L5.33333333,24 C5.33333333,24.7363797 4.73637967,25.3333333 4,25.3333333 L4,25.3333333 L2.66666667,25.3333333 C2.31304468,25.3333333 1.97390613,25.1928575 1.72385763,24.942809 C1.47380912,24.6927605 1.33333333,24.353622 1.33333333,24 L1.33333333,24 L1.33333333,21.6266667 C0.490474758,20.8728204 0.00607110033,19.7974443 0,18.6666667 L0,18.6666667 L0,5.33333333 C0,0.666666667 4.77333333,0 10.6666667,0 Z M4.66666667,16 C3.56209717,16 2.66666667,16.8954305 2.66666667,18 C2.66666667,19.1045695 3.56209717,20 4.66666667,20 C5.77123617,20 6.66666667,19.1045695 6.66666667,18 C6.66666667,16.8954305 5.77123617,16 4.66666667,16 Z" id="Combined-Shape" fill="#0050E8"></path>
                </g>
            </g>
        </g>
    </g>
</svg>